{"title":"On.a.Dogging.Mission.Bree.Branning.XXX.mp4","uid":10618671,"size":495797686,"categoryP":"porn","categoryS":"movies","magnet":"?xt=urn:btih:5da1455fd2bad593f33f7d12ffc130a7f4c3642a&amp;dn=On.a.Dogging.Mission.Bree.Branning.XXX.mp4&amp;tr=udp%3A%2F%2Ftracker.openbittorrent.com%3A80&amp;tr=udp%3A%2F%2Fopen.demonii.com%3A1337&amp;tr=udp%3A%2F%2Ftracker.coppersurfer.tk%3A6969&amp;tr=udp%3A%2F%2Fexodus.desync.com%3A6969","seeders":1,"leechers":0,"uploader":"XXXmegathor","files":1,"time":1406150263,"description":"On.a.Dogging.Mission.Bree.Branning.XXX\n\nSCREENIES &lt;a href=&quot;\nhttp://www.xxxtrapics.com/image/Mu&quot; rel=&quot;nofollow&quot; target=&quot;_NEW&quot;&gt;\nhttp://www.xxxtrapics.com/image/Mu&lt;/a&gt;\n\n\nDuration : 16mn 8s\nBit rate mode : Variable\nBit rate : 3 996 Kbps\nWidth : 1 280 pixels\nHeight : 720 pixels\nDisplay aspect ratio : 16:9\nFrame rate mode : Constant\nFrame rate : 25.000 fps\nStandard : PAL\nColor space : YUV\nChroma subsampling : 4:2:0\nBit depth : 8 bits\nScan type : Progressive\nBits/(Pixel*Frame) : 0.173\nStream size : 461 MiB (98%)\nEncoded date : UTC 2012-07-10 00:56:55\nTagged date : UTC 2012-07-10 00:56:55\n\nAudio\nID : 1\nFormat : AAC\nFormat/Info : Advanced Audio Codec\nFormat profile : LC\nCodec ID : 40\nDuration : 16mn 8s\nBit rate mode : Variable\nBit rate : 96.0 Kbps\nChannel(s) : 2 channels\nChannel positions : Front: L R\nSampling rate : 44.1 KHz\nCompression mode : Lossy\nStream size : 11.1 MiB (2%)\nEncoded date : UTC 2012-07-10 00:56:55\nTagged date : UTC 2012-07-10 00:56:55\n\n\n","torrent":{"xt":"urn:btih:5da1455fd2bad593f33f7d12ffc130a7f4c3642a","amp;dn":"On.a.Dogging.Mission.Bree.Branning.XXX.mp4","amp;tr":["udp%3A%2F%2Ftracker.openbittorrent.com%3A80","udp%3A%2F%2Fopen.demonii.com%3A1337","udp%3A%2F%2Ftracker.coppersurfer.tk%3A6969","udp%3A%2F%2Fexodus.desync.com%3A6969"],"infoHash":"5da1455fd2bad593f33f7d12ffc130a7f4c3642a","infoHashBuffer":{"type":"Buffer","data":[93,161,69,95,210,186,213,147,243,63,125,18,255,193,48,167,244,195,100,42]},"announce":[],"urlList":[]}}